<svg width="18" height="19" viewBox="0 0 18 19" fill="none" xmlns="http://www.w3.org/2000/svg">
<path d="M13.5629 3.86079L15.6394 5.9363L13.5629 3.86079ZM14.8982 2.03234L9.28343 7.64711C8.99332 7.93681 8.79546 8.30592 8.7148 8.7079L8.19617 11.304L10.7923 10.7844C11.1942 10.704 11.5629 10.5069 11.8531 10.2167L17.4678 4.60198C17.6366 4.43325 17.7704 4.23295 17.8617 4.0125C17.953 3.79205 18 3.55577 18 3.31716C18 3.07855 17.953 2.84227 17.8617 2.62182C17.7704 2.40137 17.6366 2.20107 17.4678 2.03234C17.2991 1.86362 17.0988 1.72978 16.8784 1.63846C16.6579 1.54715 16.4216 1.50015 16.183 1.50015C15.9444 1.50015 15.7081 1.54715 15.4877 1.63846C15.2672 1.72978 15.0669 1.86362 14.8982 2.03234V2.03234Z" stroke="#6E6893" stroke-width="2" stroke-linecap="round" stroke-linejoin="round"/>
<path d="M16.0394 13.2648V16.206C16.0394 16.7261 15.8328 17.2248 15.4651 17.5925C15.0973 17.9602 14.5986 18.1668 14.0786 18.1668H3.29415C2.77411 18.1668 2.27537 17.9602 1.90765 17.5925C1.53993 17.2248 1.33334 16.7261 1.33334 16.206V5.42159C1.33334 4.90155 1.53993 4.40281 1.90765 4.03509C2.27537 3.66737 2.77411 3.46078 3.29415 3.46078H6.23535" stroke="#6E6893" stroke-width="2" stroke-linecap="round" stroke-linejoin="round"/>
</svg>
